<?xml version="1.0" encoding="utf-8"?>
<!-- Generator: Adobe Illustrator 19.0.0, SVG Export Plug-In . SVG Version: 6.00 Build 0)  -->
<svg version="1.1" id="Capa_1" xmlns="http://www.w3.org/2000/svg" xmlns:xlink="http://www.w3.org/1999/xlink" x="0px" y="0px"
	 viewBox="211 -211 512 512" style="enable-background:new 211 -211 512 512;" xml:space="preserve">
<style type="text/css">
	.st0{fill:#E3E0E4;}
	.st1{fill:#D4CFD5;}
	.st2{fill:#5D91B9;}
	.st3{fill:#C5BEC6;}
	.st4{fill:#0F3254;}
</style>
<g>
	<g>
		<path class="st0" d="M701.1-56.9c0,76.3-25.2,146.8-67.8,203.4C571.5,228.8,480.9,268,370,268C182.8,268,38.9,130.3,38.9-56.9
			c0-108.6,35.3-205.3,114.8-267.4c57.5-44.9,129.9-71.7,208.5-71.7C549.3-395.9,701.1-244.1,701.1-56.9z"/>
		<path class="st1" d="M644.7,130.4C584,221.8,480.1,282.1,362.1,282.1c-187.2,0-339-151.8-339-339c0-118,60.3-221.9,151.7-282.6
			c-35.6,53.7-56.4,118.1-56.4,187.3c0,187.2,151.8,339,339,339C526.6,186.8,591,166,644.7,130.4z"/>
		<path class="st2" d="M639.5-445.8l12.3,24.6c0.3,0.6,0.8,1.1,1.4,1.4l24.6,12.3c2.3,1.2,2.3,4.5,0,5.7l-24.6,12.3
			c-0.6,0.3-1.1,0.8-1.4,1.4l-12.3,24.6c-1.2,2.3-4.5,2.3-5.7,0l-12.3-24.6c-0.3-0.6-0.8-1.1-1.4-1.4l-24.6-12.3
			c-2.3-1.2-2.3-4.5,0-5.7l24.6-12.3c0.6-0.3,1.1-0.8,1.4-1.4l12.3-24.6C634.9-448.2,638.3-448.2,639.5-445.8z"/>
		<path class="st2" d="M612.5,290.4l-5.5-10.9c-0.1-0.3-0.4-0.5-0.6-0.6l-10.9-5.5c-1-0.5-1-2,0-2.5l10.9-5.5
			c0.3-0.1,0.5-0.4,0.6-0.6l5.5-10.9c0.5-1,2-1,2.5,0l5.5,10.9c0.1,0.3,0.4,0.5,0.6,0.6l10.9,5.5c1,0.5,1,2,0,2.5l-10.9,5.5
			c-0.3,0.1-0.5,0.4-0.6,0.6l-5.5,10.9C614.5,291.4,613,291.4,612.5,290.4z"/>
		<path class="st1" d="M263.7-107.7c0,8.3-1.7,16.3-4.7,23.5c-9.2,21.7-30.3,28.1-55.3,28.1c-33.3,0-48.8-15.9-48.8-49.2
			c0-24.9,3.3-48.7,24.8-57.9c7.3-3.1,15.3-4.8,23.7-4.8C236.6-168.1,263.7-141.1,263.7-107.7L263.7-107.7z"/>
		<path class="st1" d="M413.7,145.5c0,13.8-4.6,26.5-12.4,36.7c-11,14.4-28.4,13.1-47.9,13.1c-33.3,0-60.3-16.4-60.3-49.7
			s27-60.3,60.3-60.3S413.7,112.2,413.7,145.5L413.7,145.5z"/>
		<path class="st3" d="M401.3,182.2c-11,14.4-28.4,23.7-47.9,23.7c-33.3,0-60.3-27-60.3-60.3c0-0.4,0-0.8,0-1.1
			C326.1,162.8,362.6,175.8,401.3,182.2z"/>
		<path class="st1" d="M556.6-189.5c0,7-2,13.6-5.4,19.2c-6.4,10.4-16.9,14.8-30.1,14.8c-20.2,0-33.9-13.5-33.9-33.6
			c0-14.6,4.9-27.5,17.3-33.4c4.7-2.2,10-3.5,15.6-3.5C540.3-226,556.6-209.7,556.6-189.5L556.6-189.5z"/>
		<path class="st1" d="M583.6,90c0,4.8-0.9,9.4-2.6,13.6c-5.4,13.4-18.5,16-33.9,16c-20.2,0-26-9.1-26-29.3c0-17.6,2-32.7,18.6-36.1
			c2.4-0.5,4.8-0.7,7.4-0.7C567.3,53.4,583.6,69.8,583.6,90L583.6,90z"/>
		<path class="st3" d="M258.8-84c-9.2,21.5-30.6,36.6-55.5,36.6c-33.3,0-60.3-27-60.3-60.3c0-24.9,15.1-46.3,36.6-55.5
			c-3.1,7.3-4.8,15.3-4.8,23.7c0,33.3,27,60.3,60.3,60.3C243.5-79.2,251.5-80.9,258.8-84z"/>
		<path class="st3" d="M554-175.9c-5.4,13.4-18.5,22.9-33.9,22.9c-20.2,0-36.5-16.4-36.5-36.5c0-17.8,12.8-32.7,29.6-35.9
			c-1.7,4.2-2.7,8.8-2.7,13.6c0,20.2,16.4,36.5,36.5,36.5C549.4-175.2,551.7-175.4,554-175.9z"/>
		<path class="st3" d="M581,103.6c-5.4,13.4-18.5,22.9-33.9,22.9c-20.2,0-36.5-16.4-36.5-36.5c0-17.8,12.8-32.7,29.6-35.9
			c-1.7,4.2-2.7,8.8-2.7,13.6c0,20.2,16.4,36.5,36.5,36.5C576.4,104.2,578.7,104,581,103.6z"/>
		<circle class="st1" cx="375.6" cy="-288.7" r="24.6"/>
		<circle class="st1" cx="358.9" cy="-77.6" r="27.8"/>
		<circle class="st3" cx="104.9" cy="9.8" r="23"/>
		<circle class="st1" cx="590.8" cy="-33.1" r="23"/>
		<circle class="st1" cx="215.2" cy="-226" r="11.6"/>
		<circle class="st3" cx="197.8" cy="94.7" r="11.6"/>
		<g>
			<circle class="st1" cx="504.2" cy="170.9" r="11.6"/>
			<circle class="st1" cx="637.6" cy="-116.5" r="11.6"/>
			<circle class="st1" cx="472.5" cy="-292.7" r="11.6"/>
		</g>
	</g>
	<g>
		<path class="st4" d="M657-247.2c-35.7-55.2-85.9-99.2-145.3-127.2c-5.9-2.8-13-0.3-15.9,5.7c-2.8,5.9-0.3,13,5.7,15.9
			c114,53.8,187.6,170,187.6,296c0,30.4-4.2,60.5-12.4,89.5c-1.8,6.3,1.9,12.9,8.2,14.7c1.1,0.3,2.2,0.5,3.3,0.5
			c5.2,0,10-3.4,11.4-8.7C708.5,8,713-24.3,713-56.9C713-124.7,693.6-190.5,657-247.2L657-247.2z"/>
		<path class="st4" d="M673.7,77.3c-5.9-2.8-13-0.3-15.9,5.7c-53.9,113.7-170,187.2-295.8,187.2C181.7,270.2,35,123.4,35-56.9
			S181.7-384,362.1-384c29.9,0,59.6,4,88.1,12c6.3,1.8,12.9-1.9,14.7-8.3c1.8-6.3-1.9-12.9-8.3-14.7c-30.6-8.6-62.4-12.9-94.5-12.9
			c-93.7,0-181.9,36.5-248.1,102.8S11.2-150.7,11.2-56.9S47.7,124.9,114,191.2S268.4,294,362.1,294c67.7,0,133.4-19.3,190.1-55.9
			c55.2-35.6,99.1-85.7,127.2-144.9C682.2,87.2,679.7,80.1,673.7,77.3L673.7,77.3z"/>
		<path class="st4" d="M584.4-394l27.7,13.8l13.8,27.7c2,4,6.1,6.6,10.7,6.6c4.5,0,8.6-2.5,10.7-6.6l13.8-27.7l27.7-13.8
			c4-2,6.6-6.1,6.6-10.7c0-4.5-2.5-8.6-6.6-10.7l-27.7-13.8l-13.8-27.7c-2-4-6.1-6.6-10.7-6.6c-4.5,0-8.6,2.5-10.7,6.6l-13.8,27.7
			l-27.7,13.8c-4,2-6.6,6.1-6.6,10.7C577.9-400.1,580.4-396,584.4-394z M626.3-409.6c2.3-1.2,4.2-3,5.3-5.3l5-9.9l5,9.9
			c1.2,2.3,3,4.2,5.3,5.3l9.9,5l-9.9,5c-2.3,1.2-4.2,3-5.3,5.3l-5,9.9l-5-9.9c-1.2-2.3-3-4.2-5.3-5.3l-9.9-5L626.3-409.6z"/>
		<path class="st4" d="M705.3,153.1h-4v-4c0-3.3-2.7-6-6-6s-6,2.7-6,6v4h-4c-3.3,0-6,2.7-6,6c0,3.3,2.7,6,6,6h4v4c0,3.3,2.7,6,6,6
			s6-2.7,6-6v-4h4c3.3,0,6-2.7,6-6C711.2,155.7,708.6,153.1,705.3,153.1z"/>
		<path class="st4" d="M636.9,267.4l-12.3-6.1l-6.1-12.3c-0.9-1.8-2.7-2.9-4.7-2.9s-3.8,1.1-4.7,2.9l-6.1,12.3l-12.3,6.1
			c-1.8,0.9-2.9,2.7-2.9,4.7s1.1,3.8,2.9,4.7l12.3,6.1l6.1,12.3c0.9,1.8,2.7,2.9,4.7,2.9s3.8-1.1,4.7-2.9l6.1-12.3l12.3-6.1
			c1.8-0.9,2.9-2.7,2.9-4.7S638.7,268.3,636.9,267.4z M618.3,274.3c-1,0.5-1.8,1.3-2.4,2.4l-2.2,4.4l-2.2-4.4
			c-0.5-1-1.3-1.8-2.4-2.4l-4.4-2.2l4.4-2.2c1-0.5,1.8-1.3,2.4-2.4l2.2-4.4l2.2,4.4c0.5,1,1.3,1.8,2.4,2.4l4.4,2.2L618.3,274.3z"/>
		<path class="st4" d="M19.1-276c0-6.6-5.3-11.9-11.9-11.9h-7.9v-7.9c0-6.6-5.3-11.9-11.9-11.9s-11.9,5.3-11.9,11.9v7.9h-7.9
			c-6.6,0-11.9,5.3-11.9,11.9c0,6.6,5.3,11.9,11.9,11.9h7.9v7.9c0,6.6,5.3,11.9,11.9,11.9s11.9-5.3,11.9-11.9v-7.9h7.9
			C13.8-264.1,19.1-269.5,19.1-276z"/>
		<path class="st4" d="M275.6-107.7c0-39.8-32.4-72.2-72.2-72.2c-17.4,0-34.2,6.3-47.3,17.6c-5,4.3-5.5,11.8-1.2,16.8
			c4.3,5,11.8,5.5,16.8,1.2c8.8-7.6,20-11.8,31.7-11.8c26.7,0,48.4,21.7,48.4,48.4S230-59.3,203.3-59.3c-24.9,0-45.6-18.7-48.2-43.4
			c-0.7-6.5-6.5-11.3-13.1-10.6c-6.5,0.7-11.3,6.5-10.6,13.1c3.8,36.9,34.7,64.8,71.9,64.8C243.2-35.5,275.6-67.9,275.6-107.7z"/>
		<path class="st4" d="M353.4,194c-2.6,0-5.2-0.2-7.7-0.6c-6.5-1-12.6,3.4-13.6,9.9c-1,6.5,3.4,12.6,9.9,13.6
			c3.7,0.6,7.6,0.9,11.4,0.9c39.8,0,72.2-32.4,72.2-72.2s-32.4-72.2-72.2-72.2s-72.2,32.4-72.2,72.2c0,11.1,2.5,21.8,7.3,31.7
			c2.9,5.9,10,8.3,15.9,5.5c5.9-2.9,8.4-10,5.5-15.9c-3.3-6.6-4.9-13.8-4.9-21.3c0-26.7,21.7-48.4,48.4-48.4s48.4,21.7,48.4,48.4
			S380.1,194,353.4,194L353.4,194z"/>
		<path class="st4" d="M520.1-237.9c-26.7,0-48.4,21.7-48.4,48.4s21.7,48.4,48.4,48.4s48.4-21.7,48.4-48.4S546.8-237.9,520.1-237.9z
			 M520.1-164.9c-13.6,0-24.6-11-24.6-24.6s11-24.6,24.6-24.6c13.6,0,24.6,11,24.6,24.6S533.7-164.9,520.1-164.9z"/>
		<path class="st4" d="M595.5,90c0-26.7-21.7-48.4-48.4-48.4c-26.7,0-48.4,21.7-48.4,48.4s21.7,48.4,48.4,48.4
			C573.8,138.4,595.5,116.7,595.5,90z M522.5,90c0-13.6,11-24.6,24.6-24.6c13.6,0,24.6,11,24.6,24.6s-11,24.6-24.6,24.6
			C533.5,114.6,522.5,103.5,522.5,90z"/>
		<path class="st4" d="M412.1-288.7c0-20.1-16.4-36.5-36.5-36.5c-20.1,0-36.5,16.4-36.5,36.5c0,20.1,16.4,36.5,36.5,36.5
			S412.1-268.6,412.1-288.7z M362.9-288.7c0-7,5.7-12.7,12.7-12.7s12.7,5.7,12.7,12.7c0,7-5.7,12.7-12.7,12.7
			S362.9-281.7,362.9-288.7z"/>
		<path class="st4" d="M319.2-77.6c0,21.9,17.8,39.7,39.7,39.7c21.9,0,39.7-17.8,39.7-39.7s-17.8-39.7-39.7-39.7
			C337-117.3,319.2-99.5,319.2-77.6z M358.9-93.4c8.8,0,15.9,7.1,15.9,15.9s-7.1,15.9-15.9,15.9c-8.8,0-15.9-7.1-15.9-15.9
			S350.2-93.4,358.9-93.4z"/>
		<path class="st4" d="M104.9-25.2c-19.3,0-34.9,15.7-34.9,34.9s15.7,34.9,34.9,34.9S139.8,29,139.8,9.8S124.1-25.2,104.9-25.2z
			 M104.9,20.9c-6.1,0-11.1-5-11.1-11.1s5-11.1,11.1-11.1S116,3.6,116,9.8S111,20.9,104.9,20.9z"/>
		<path class="st4" d="M625.7-33.1c0-19.3-15.7-34.9-34.9-34.9s-34.9,15.7-34.9,34.9s15.7,34.9,34.9,34.9S625.7-13.8,625.7-33.1z
			 M590.8-22c-6.1,0-11.1-5-11.1-11.1s5-11.1,11.1-11.1s11.1,5,11.1,11.1S596.9-22,590.8-22z"/>
		<circle class="st4" cx="215.2" cy="-226" r="11.9"/>
		<circle class="st4" cx="472.5" cy="-292.7" r="11.9"/>
		<circle class="st4" cx="637.6" cy="-116.5" r="11.9"/>
		<circle class="st4" cx="504.2" cy="170.9" r="11.9"/>
		<circle class="st4" cx="197.8" cy="94.7" r="11.9"/>
	</g>
</g>
</svg>
