<?xml version="1.0" encoding="utf-8"?>
<!-- Generator: Adobe Illustrator 19.0.0, SVG Export Plug-In . SVG Version: 6.00 Build 0)  -->
<svg version="1.1" id="Capa_1" xmlns="http://www.w3.org/2000/svg" xmlns:xlink="http://www.w3.org/1999/xlink" x="0px" y="0px"
	 viewBox="211 -211 512 512" style="enable-background:new 211 -211 512 512;" xml:space="preserve">
<style type="text/css">
	.st0{clip-path:url(#SVGID_2_);}
	.st1{fill:#FFD900;}
	.st2{fill:#FFA400;}
	.st3{fill:#FFBB00;}
</style>
<g>
	<defs>
		<rect id="SVGID_1_" x="211" y="-211" width="512" height="512"/>
	</defs>
	<clipPath id="SVGID_2_">
		<use xlink:href="#SVGID_1_"  style="overflow:visible;"/>
	</clipPath>
	<g class="st0">
		<g>
			<path class="st1" d="M310.4-390.8c0,14,11.4,25.4,25.4,25.4c14,0,25.4-11.4,25.4-25.4v-50.8c0-14-11.4-25.4-25.4-25.4
				c-14,0-25.4,11.4-25.4,25.4L310.4-390.8z"/>
			<path class="st1" d="M310.4,269.2c0,14,11.4,25.4,25.4,25.4c14,0,25.4-11.4,25.4-25.4v-50.8c0-14-11.4-25.4-25.4-25.4
				s-25.4,11.4-25.4,25.4L310.4,269.2z"/>
			<path class="st1" d="M640.4-111.6c-14,0-25.4,11.4-25.4,25.4s11.4,25.4,25.4,25.4h50.8c14,0,25.4-11.4,25.4-25.4
				s-11.4-25.4-25.4-25.4L640.4-111.6z"/>
			<path class="st1" d="M-19.6-111.6c-14,0-25.4,11.4-25.4,25.4s11.4,25.4,25.4,25.4h50.8c14,0,25.4-11.4,25.4-25.4
				s-11.4-25.4-25.4-25.4L-19.6-111.6z"/>
			<circle class="st1" cx="335.8" cy="-86.2" r="228.5"/>
			<path class="st1" d="M533.2-319.6c-9.9,9.9-9.9,26,0,35.9c9.9,9.9,26,9.9,35.9,0l35.9-35.9c9.9-9.9,9.9-26,0-35.9
				c-9.9-9.9-26-9.9-35.9,0L533.2-319.6z"/>
			<path class="st1" d="M66.5,147.1c-9.9,9.9-9.9,26,0,35.9s26,9.9,35.9,0l35.9-35.9c9.9-9.9,9.9-26,0-35.9c-9.9-9.9-26-9.9-35.9,0
				L66.5,147.1z"/>
			<path class="st1" d="M569.1,111.2c-9.9-9.9-26-9.9-35.9,0s-9.9,26,0,35.9l35.9,35.9c9.9,9.9,26,9.9,35.9,0c9.9-9.9,9.9-26,0-35.9
				L569.1,111.2z"/>
			<path class="st1" d="M102.4-355.5c-9.9-9.9-26-9.9-35.9,0c-9.9,9.9-9.9,26,0,35.9l35.9,35.9c9.9,9.9,26,9.9,35.9,0
				c9.9-9.9,9.9-26,0-35.9L102.4-355.5z"/>
		</g>
		<g>
			<path class="st2" d="M219.2-356.1c-4.5,0-8.8-2.7-10.6-7.1l-9.7-23.5c-2.4-5.9,0.4-12.6,6.2-15c5.9-2.4,12.6,0.4,15,6.2l9.7,23.5
				c2.4,5.9-0.4,12.6-6.2,15C222.2-356.4,220.7-356.1,219.2-356.1L219.2-356.1z"/>
		</g>
		<g>
			<path class="st2" d="M462.1,230.2c-4.5,0-8.8-2.7-10.6-7.1l-9.7-23.5c-2.4-5.9,0.4-12.6,6.2-15c5.9-2.4,12.6,0.4,15,6.2l9.7,23.5
				c2.4,5.9-0.4,12.6-6.2,15C465,229.9,463.6,230.2,462.1,230.2z"/>
		</g>
		<g>
			<path class="st2" d="M54.4-191.3c-1.5,0-3-0.3-4.4-0.9l-23.5-9.7c-5.9-2.4-8.6-9.2-6.2-15c2.4-5.9,9.2-8.7,15-6.2l23.5,9.7
				c5.9,2.4,8.6,9.2,6.2,15C63.2-193.9,58.9-191.3,54.4-191.3z"/>
		</g>
		<g>
			<path class="st2" d="M640.7,51.6c-1.5,0-3-0.3-4.4-0.9L612.9,41c-5.9-2.4-8.7-9.2-6.2-15c2.4-5.9,9.2-8.7,15-6.2l23.5,9.7
				c5.9,2.4,8.7,9.2,6.2,15C649.5,48.9,645.2,51.6,640.7,51.6L640.7,51.6z"/>
		</g>
		<g>
			<path class="st2" d="M30.9,51.6c-4.5,0-8.8-2.7-10.6-7.1c-2.4-5.9,0.4-12.6,6.2-15L50,19.8c5.9-2.4,12.6,0.4,15,6.2
				c2.4,5.9-0.4,12.6-6.2,15l-23.5,9.7C33.9,51.3,32.4,51.6,30.9,51.6z"/>
		</g>
		<g>
			<path class="st2" d="M617.3-191.3c-4.5,0-8.8-2.7-10.6-7.1c-2.4-5.9,0.4-12.6,6.2-15l23.5-9.7c5.9-2.4,12.6,0.4,15,6.2
				c2.4,5.9-0.4,12.6-6.2,15l-23.5,9.7C620.2-191.5,618.7-191.3,617.3-191.3z"/>
		</g>
		<g>
			<path class="st2" d="M209.6,230.2c-1.5,0-3-0.3-4.4-0.9c-5.9-2.4-8.6-9.2-6.2-15l9.7-23.5c2.4-5.9,9.2-8.7,15-6.2
				c5.9,2.4,8.6,9.2,6.2,15l-9.7,23.5C218.3,227.5,214.1,230.2,209.6,230.2L209.6,230.2z"/>
		</g>
		<g>
			<path class="st2" d="M452.4-356.1c-1.5,0-3-0.3-4.4-0.9c-5.9-2.4-8.7-9.2-6.2-15l9.7-23.5c2.4-5.9,9.2-8.7,15-6.2
				c5.9,2.4,8.7,9.2,6.2,15l-9.7,23.5C461.2-358.8,456.9-356.1,452.4-356.1z"/>
		</g>
		<path class="st3" d="M335.8-314.7c-5.9,0-11.8,0.2-17.6,0.7C436.1-305,529-206.5,529-86.2s-92.9,218.8-210.9,227.8
			c5.8,0.4,11.7,0.7,17.6,0.7C462,142.3,564.3,40,564.3-86.2S462-314.7,335.8-314.7L335.8-314.7z"/>
		<path class="st3" d="M31.2-111.6H-4.1c14,0,25.4,11.4,25.4,25.4c0,14-11.4,25.4-25.4,25.4h35.2c14,0,25.4-11.4,25.4-25.4
			C56.5-100.2,45.2-111.6,31.2-111.6L31.2-111.6z"/>
		<path class="st3" d="M691.2-111.6h-35.2c14,0,25.4,11.4,25.4,25.4c0,14-11.4,25.4-25.4,25.4h35.2c14,0,25.4-11.4,25.4-25.4
			C716.6-100.2,705.2-111.6,691.2-111.6L691.2-111.6z"/>
		<path class="st3" d="M335.8-467c-6.9,0-13.1,2.7-17.6,7.1c4.8,4.6,7.8,11.1,7.8,18.3v50.8c0,7.2-3,13.6-7.8,18.2
			c4.6,4.4,10.8,7.1,17.6,7.1c14,0,25.4-11.4,25.4-25.4v-50.8C361.2-455.6,349.8-467,335.8-467L335.8-467z"/>
		<path class="st3" d="M335.8,193c-6.9,0-13.1,2.7-17.6,7.1c4.8,4.6,7.8,11.1,7.8,18.2v50.8c0,7.2-3,13.6-7.8,18.2
			c4.6,4.4,10.8,7.1,17.6,7.1c14,0,25.4-11.4,25.4-25.4v-50.8C361.2,204.4,349.8,193,335.8,193L335.8,193z"/>
		<path class="st3" d="M605-355.5c-9.8-9.8-25.6-9.9-35.6-0.3c0.1,0.1,0.2,0.2,0.3,0.3c9.9,9.9,9.9,26,0,35.9l-35.9,35.9
			c-0.1,0.1-0.2,0.2-0.3,0.3c9.9,9.6,25.8,9.5,35.6-0.3l35.9-35.9C615-329.5,615-345.6,605-355.5z"/>
		<path class="st3" d="M605,147.1l-35.9-35.9c-9.8-9.8-25.6-9.9-35.6-0.3c0.1,0.1,0.2,0.2,0.3,0.3l35.9,35.9c9.9,9.9,9.9,26,0,35.9
			c-0.1,0.1-0.2,0.2-0.3,0.3c9.9,9.6,25.8,9.5,35.6-0.3C615,173.1,615,157.1,605,147.1z"/>
		<path class="st3" d="M138.3-319.6l-35.9-35.9c-9.8-9.8-25.6-9.9-35.5-0.3c0.1,0.1,0.2,0.2,0.4,0.3l35.9,35.9
			c9.9,9.9,9.9,26,0,35.9c-0.1,0.1-0.2,0.2-0.4,0.3c9.9,9.6,25.7,9.5,35.5-0.3C148.2-293.6,148.2-309.7,138.3-319.6z"/>
		<path class="st3" d="M138.3,111.2c-9.8-9.8-25.6-9.9-35.5-0.3c0.1,0.1,0.2,0.2,0.4,0.3c9.9,9.9,9.9,26,0,35.9L67.3,183
			c-0.1,0.1-0.2,0.2-0.4,0.3c9.9,9.6,25.7,9.5,35.5-0.3l35.9-35.9C148.2,137.2,148.2,121.2,138.3,111.2L138.3,111.2z"/>
	</g>
</g>
</svg>
